<mxfile host="drawio-plugin" modified="2022-01-02T14:40:57.031Z" agent="5.0 (Windows NT 6.2; Win64; x64) AppleWebKit/537.36 (KHTML, like Gecko) Chrome/87.0.4280.141 Safari/537.36" etag="m_B4oS5vtwe08-HLaaLx" version="14.7.4" type="embed"><diagram id="kgpKYQtTHZ0yAKxKKP6v" name="Page-1"><mxGraphModel dx="1153" dy="613" grid="1" gridSize="10" guides="1" tooltips="1" connect="1" arrows="1" fold="1" page="1" pageScale="1" pageWidth="850" pageHeight="1100" math="0" shadow="0"><root><mxCell id="0"/><mxCell id="1" parent="0"/><mxCell id="3nuBFxr9cyL0pnOWT2aG-5" value="API" style="shape=umlLifeline;perimeter=lifelinePerimeter;container=1;collapsible=0;recursiveResize=0;rounded=0;shadow=0;strokeWidth=1;" parent="1" vertex="1"><mxGeometry x="230" y="100" width="100" height="390" as="geometry"/></mxCell><mxCell id="3nuBFxr9cyL0pnOWT2aG-6" value="" style="points=[];perimeter=orthogonalPerimeter;rounded=0;shadow=0;strokeWidth=1;" parent="3nuBFxr9cyL0pnOWT2aG-5" vertex="1"><mxGeometry x="45" y="90" width="10" height="130" as="geometry"/></mxCell><mxCell id="QoaP8Y3802NzT0ZwEPPL-1" value="Driver" style="shape=umlActor;verticalLabelPosition=bottom;verticalAlign=top;html=1;outlineConnect=0;" parent="1" vertex="1"><mxGeometry x="70" y="90" width="30" height="50" as="geometry"/></mxCell><mxCell id="QoaP8Y3802NzT0ZwEPPL-6" style="edgeStyle=orthogonalEdgeStyle;rounded=0;orthogonalLoop=1;jettySize=auto;html=1;entryX=0.5;entryY=0.5;entryDx=0;entryDy=0;entryPerimeter=0;endArrow=none;endFill=0;" parent="1" source="3nuBFxr9cyL0pnOWT2aG-2" target="QoaP8Y3802NzT0ZwEPPL-1" edge="1"><mxGeometry relative="1" as="geometry"/></mxCell><mxCell id="3nuBFxr9cyL0pnOWT2aG-2" value="" style="points=[];perimeter=orthogonalPerimeter;rounded=0;shadow=0;strokeWidth=1;" parent="1" vertex="1"><mxGeometry x="80" y="170" width="10" height="330" as="geometry"/></mxCell><mxCell id="QoaP8Y3802NzT0ZwEPPL-8" value="" style="endArrow=classic;html=1;rounded=0;exitX=1.24;exitY=0.168;exitDx=0;exitDy=0;exitPerimeter=0;" parent="1" source="3nuBFxr9cyL0pnOWT2aG-2" target="3nuBFxr9cyL0pnOWT2aG-5" edge="1"><mxGeometry width="50" height="50" relative="1" as="geometry"><mxPoint x="90" y="250" as="sourcePoint"/><mxPoint x="140" y="200" as="targetPoint"/></mxGeometry></mxCell><mxCell id="QoaP8Y3802NzT0ZwEPPL-9" value="makeOffer(requestID,price)" style="edgeLabel;html=1;align=center;verticalAlign=middle;resizable=0;points=[];" parent="QoaP8Y3802NzT0ZwEPPL-8" vertex="1" connectable="0"><mxGeometry x="-0.1427" y="3" relative="1" as="geometry"><mxPoint as="offset"/></mxGeometry></mxCell><mxCell id="QoaP8Y3802NzT0ZwEPPL-10" value="rideManger" style="rounded=0;whiteSpace=wrap;html=1;" parent="1" vertex="1"><mxGeometry x="390" y="100" width="120" height="50" as="geometry"/></mxCell><mxCell id="QoaP8Y3802NzT0ZwEPPL-13" value="" style="edgeStyle=orthogonalEdgeStyle;rounded=0;orthogonalLoop=1;jettySize=auto;html=1;endArrow=none;endFill=0;dashed=1;" parent="1" source="QoaP8Y3802NzT0ZwEPPL-12" target="QoaP8Y3802NzT0ZwEPPL-10" edge="1"><mxGeometry relative="1" as="geometry"/></mxCell><mxCell id="QoaP8Y3802NzT0ZwEPPL-35" style="edgeStyle=orthogonalEdgeStyle;rounded=0;orthogonalLoop=1;jettySize=auto;html=1;endArrow=none;endFill=0;dashed=1;entryX=0.5;entryY=0;entryDx=0;entryDy=0;" parent="1" source="QoaP8Y3802NzT0ZwEPPL-12" target="QoaP8Y3802NzT0ZwEPPL-36" edge="1"><mxGeometry relative="1" as="geometry"><mxPoint x="450" y="330" as="targetPoint"/></mxGeometry></mxCell><mxCell id="QoaP8Y3802NzT0ZwEPPL-12" value="" style="rounded=0;whiteSpace=wrap;html=1;" parent="1" vertex="1"><mxGeometry x="445" y="190" width="10" height="80" as="geometry"/></mxCell><mxCell id="QoaP8Y3802NzT0ZwEPPL-18" value="" style="endArrow=classic;html=1;rounded=0;exitX=0.961;exitY=0.386;exitDx=0;exitDy=0;exitPerimeter=0;entryX=-0.144;entryY=0.626;entryDx=0;entryDy=0;entryPerimeter=0;" parent="1" source="3nuBFxr9cyL0pnOWT2aG-6" target="QoaP8Y3802NzT0ZwEPPL-12" edge="1"><mxGeometry width="50" height="50" relative="1" as="geometry"><mxPoint x="290" y="260" as="sourcePoint"/><mxPoint x="440" y="240" as="targetPoint"/><Array as="points"><mxPoint x="300" y="240"/></Array></mxGeometry></mxCell><mxCell id="QoaP8Y3802NzT0ZwEPPL-19" value="getRequestByID(requsestID)" style="edgeLabel;html=1;align=center;verticalAlign=middle;resizable=0;points=[];" parent="QoaP8Y3802NzT0ZwEPPL-18" vertex="1" connectable="0"><mxGeometry x="-0.0999" relative="1" as="geometry"><mxPoint x="9" y="-11" as="offset"/></mxGeometry></mxCell><mxCell id="QoaP8Y3802NzT0ZwEPPL-21" value="" style="endArrow=open;html=1;rounded=0;dashed=1;endFill=0;entryX=1.038;entryY=0.602;entryDx=0;entryDy=0;entryPerimeter=0;exitX=0.078;exitY=0.973;exitDx=0;exitDy=0;exitPerimeter=0;" parent="1" source="QoaP8Y3802NzT0ZwEPPL-12" target="3nuBFxr9cyL0pnOWT2aG-6" edge="1"><mxGeometry width="50" height="50" relative="1" as="geometry"><mxPoint x="440" y="268" as="sourcePoint"/><mxPoint x="290" y="270" as="targetPoint"/></mxGeometry></mxCell><mxCell id="QoaP8Y3802NzT0ZwEPPL-26" value="return" style="edgeLabel;html=1;align=center;verticalAlign=middle;resizable=0;points=[];" parent="QoaP8Y3802NzT0ZwEPPL-21" vertex="1" connectable="0"><mxGeometry x="-0.0651" relative="1" as="geometry"><mxPoint as="offset"/></mxGeometry></mxCell><mxCell id="2" style="edgeStyle=orthogonalEdgeStyle;rounded=0;orthogonalLoop=1;jettySize=auto;html=1;endArrow=none;endFill=0;dashed=1;" edge="1" parent="1" source="QoaP8Y3802NzT0ZwEPPL-27" target="QoaP8Y3802NzT0ZwEPPL-28"><mxGeometry relative="1" as="geometry"/></mxCell><mxCell id="QoaP8Y3802NzT0ZwEPPL-27" value="Requuest" style="rounded=0;whiteSpace=wrap;html=1;" parent="1" vertex="1"><mxGeometry x="605" y="105" width="120" height="45" as="geometry"/></mxCell><mxCell id="QoaP8Y3802NzT0ZwEPPL-28" value="" style="rounded=0;whiteSpace=wrap;html=1;" parent="1" vertex="1"><mxGeometry x="660" y="180" width="10" height="180" as="geometry"/></mxCell><mxCell id="QoaP8Y3802NzT0ZwEPPL-30" value="" style="endArrow=classic;html=1;rounded=0;exitX=1.015;exitY=0.847;exitDx=0;exitDy=0;exitPerimeter=0;entryX=-0.01;entryY=0.664;entryDx=0;entryDy=0;entryPerimeter=0;" parent="1" source="3nuBFxr9cyL0pnOWT2aG-6" target="QoaP8Y3802NzT0ZwEPPL-28" edge="1"><mxGeometry width="50" height="50" relative="1" as="geometry"><mxPoint x="290" y="300" as="sourcePoint"/><mxPoint x="691" y="300" as="targetPoint"/><Array as="points"><mxPoint x="590" y="300"/><mxPoint x="580" y="300"/></Array></mxGeometry></mxCell><mxCell id="QoaP8Y3802NzT0ZwEPPL-32" value="makeOffer(driver,price)" style="edgeLabel;html=1;align=center;verticalAlign=middle;resizable=0;points=[];" parent="QoaP8Y3802NzT0ZwEPPL-30" vertex="1" connectable="0"><mxGeometry x="-0.3003" y="-1" relative="1" as="geometry"><mxPoint x="86" y="-11" as="offset"/></mxGeometry></mxCell><mxCell id="QoaP8Y3802NzT0ZwEPPL-36" value="" style="rounded=0;whiteSpace=wrap;html=1;" parent="1" vertex="1"><mxGeometry x="445" y="340" width="10" height="160" as="geometry"/></mxCell><mxCell id="QoaP8Y3802NzT0ZwEPPL-38" value="" style="endArrow=classic;html=1;rounded=0;exitX=-0.108;exitY=0.969;exitDx=0;exitDy=0;exitPerimeter=0;entryX=1.019;entryY=0.091;entryDx=0;entryDy=0;entryPerimeter=0;" parent="1" source="QoaP8Y3802NzT0ZwEPPL-28" target="QoaP8Y3802NzT0ZwEPPL-36" edge="1"><mxGeometry width="50" height="50" relative="1" as="geometry"><mxPoint x="688.3700000000001" y="331.2400000000001" as="sourcePoint"/><mxPoint x="456" y="360" as="targetPoint"/></mxGeometry></mxCell><mxCell id="QoaP8Y3802NzT0ZwEPPL-39" value="makeOffer(driver,price)" style="edgeLabel;html=1;align=center;verticalAlign=middle;resizable=0;points=[];" parent="QoaP8Y3802NzT0ZwEPPL-38" vertex="1" connectable="0"><mxGeometry x="0.1871" y="-1" relative="1" as="geometry"><mxPoint x="20" y="-9" as="offset"/></mxGeometry></mxCell><mxCell id="3" value="DiscontManger" style="rounded=0;whiteSpace=wrap;html=1;" vertex="1" parent="1"><mxGeometry x="800" y="105" width="120" height="60" as="geometry"/></mxCell></root></mxGraphModel></diagram></mxfile>